<?xml version="1.0" encoding="UTF-8"?>
<svg width="13px" height="19px" viewBox="0 0 13 19" version="1.1" xmlns="http://www.w3.org/2000/svg" xmlns:xlink="http://www.w3.org/1999/xlink">
    <g stroke="none" stroke-width="1" fill="none" fill-rule="evenodd">
        <g transform="translate(-320.000000, -1214.000000)" fill="#18E5A5">
            <g id="Page-1-Copy" transform="translate(320.000000, 1214.000000)">
                <path d="M3.24334078,4.43904335 L1.95814642,4.43904335 C1.09273523,4.43904335 0.391791321,3.73448464 0.391791321,2.86636766 L0.391791321,1.57598726 C0.391791321,0.707083949 1.09273523,0.00331158012 1.95814642,0.00331158012 L3.24334078,0.00331158012 C4.10875198,0.00331158012 4.80969589,0.707083949 4.80969589,1.57598726 L4.80969589,2.86636766 C4.80969589,3.73448464 4.10875198,4.43904335 3.24334078,4.43904335"></path>
                <path d="M3.24334078,11.6677685 L1.95814642,11.6677685 C1.09273523,11.6677685 0.391791321,10.9632098 0.391791321,10.0950928 L0.391791321,8.80471241 C0.391791321,7.9358091 1.09273523,7.23203673 1.95814642,7.23203673 L3.24334078,7.23203673 C4.10875198,7.23203673 4.80969589,7.9358091 4.80969589,8.80471241 L4.80969589,10.0950928 C4.80969589,10.9632098 4.10875198,11.6677685 3.24334078,11.6677685"></path>
                <path d="M11.0707305,11.6677685 L9.78553614,11.6677685 C8.92012495,11.6677685 8.21918104,10.9632098 8.21918104,10.0950928 L8.21918104,8.80471241 C8.21918104,7.9358091 8.92012495,7.23203673 9.78553614,7.23203673 L11.0707305,7.23203673 C11.9353585,7.23203673 12.6370856,7.9358091 12.6370856,8.80471241 L12.6370856,10.0950928 C12.6370856,10.9632098 11.9353585,11.6677685 11.0707305,11.6677685"></path>
                <path d="M3.24334078,18.8962577 L1.95814642,18.8962577 C1.09273523,18.8962577 0.391791321,18.1924854 0.391791321,17.3235821 L0.391791321,16.0332017 C0.391791321,15.1642983 1.09273523,14.460526 1.95814642,14.460526 L3.24334078,14.460526 C4.10875198,14.460526 4.80969589,15.1642983 4.80969589,16.0332017 L4.80969589,17.3235821 C4.80969589,18.1924854 4.10875198,18.8962577 3.24334078,18.8962577"></path>
                <path d="M11.0707305,18.8962577 L9.78553614,18.8962577 C8.92012495,18.8962577 8.21918104,18.1924854 8.21918104,17.3235821 L8.21918104,16.0332017 C8.21918104,15.1642983 8.92012495,14.460526 9.78553614,14.460526 L11.0707305,14.460526 C11.9353585,14.460526 12.6370856,15.1642983 12.6370856,16.0332017 L12.6370856,17.3235821 C12.6370856,18.1924854 11.9353585,18.8962577 11.0707305,18.8962577"></path>
            </g>
        </g>
    </g>
</svg>