<?xml version="1.0" encoding="UTF-8"?>
<svg width="32px" height="21px" viewBox="0 0 32 21" version="1.1" xmlns="http://www.w3.org/2000/svg" xmlns:xlink="http://www.w3.org/1999/xlink">
    <defs>
        <polygon id="path-1" points="15.2412112 0.110680851 15.2412112 19.5319149 7.70690311 19.5319149 0.172595031 19.5319149 0.172595031 0.110680851"></polygon>
    </defs>
    <g stroke="none" stroke-width="1" fill="none" fill-rule="evenodd">
        <g >
            <g>
                <g id="Group-9" transform="translate(16.579193, 0.581470)">
                    <mask id="mask-2" fill="white">
                        <use xlink:href="#path-1"></use>
                    </mask>
                    <g id="Clip-8"></g>
                    <path d="M7.58542733,9.6992234 C9.10009193,9.6992234 10.2905329,8.47685106 10.2905329,6.95553191 C10.2905329,5.43475532 9.10009193,4.21238298 7.58542733,4.21238298 C6.07022236,4.21238298 4.88032174,5.43475532 4.88032174,6.95553191 C4.88032174,8.47685106 6.07022236,9.6992234 7.58542733,9.6992234 M8.58619752,13.3663404 L9.45187453,12.388117 C8.55917888,13.1759043 7.31470062,13.3934681 6.31393043,13.3934681 C2.66155155,13.3934681 0.172595031,10.5955213 0.172595031,7.17309574 C0.172595031,3.26182979 3.3921354,0.110680851 7.74753913,0.110680851 C12.1569801,0.110680851 15.2414273,3.34321277 15.2414273,7.93375532 C15.2414273,12.7955745 11.7517006,16.3270532 9.28976273,18.798383 C8.85692422,19.2329681 8.53216025,19.5319149 7.9101913,19.5319149 L4.09570062,19.5319149 C3.71689938,19.5319149 3.55478758,19.2600957 3.55478758,18.9888191 C3.55478758,18.7717979 3.66286211,18.5536915 3.85199255,18.3643404 C5.82705466,16.380766 6.69273168,15.4844681 8.58619752,13.3663404" id="Fill-7" fill="#FFFFFF" mask="url(#mask-2)"></path>
                </g>
                <path d="M2.23782298,3.75280213 L1.35107143,3.75280213 C0.753959627,3.75280213 0.270326087,3.26667447 0.270326087,2.66769574 L0.270326087,1.77736596 C0.270326087,1.17784468 0.753959627,0.692259574 1.35107143,0.692259574 L2.23782298,0.692259574 C2.83493478,0.692259574 3.31856832,1.17784468 3.31856832,1.77736596 L3.31856832,2.66769574 C3.31856832,3.26667447 2.83493478,3.75280213 2.23782298,3.75280213" id="Fill-12" fill="#0ECC8D"></path>
                <path d="M7.6385236,3.75280213 L6.75177205,3.75280213 C6.15466025,3.75280213 5.67102671,3.26667447 5.67102671,2.66769574 L5.67102671,1.77736596 C5.67102671,1.17784468 6.15466025,0.692259574 6.75177205,0.692259574 L7.6385236,0.692259574 C8.23509503,0.692259574 8.71926894,1.17784468 8.71926894,1.77736596 L8.71926894,2.66769574 C8.71926894,3.26667447 8.23509503,3.75280213 7.6385236,3.75280213" id="Fill-14" fill="#0ECC8D"></path>
                <path d="M13.0390621,3.75280213 L12.1523106,3.75280213 C11.5551988,3.75280213 11.0715652,3.26667447 11.0715652,2.66769574 L11.0715652,1.77736596 C11.0715652,1.17784468 11.5551988,0.692259574 12.1523106,0.692259574 L13.0390621,0.692259574 C13.6356335,0.692259574 14.1198075,1.17784468 14.1198075,1.77736596 L14.1198075,2.66769574 C14.1198075,3.26667447 13.6356335,3.75280213 13.0390621,3.75280213" id="Fill-16" fill="#0ECC8D"></path>
                <path d="M2.23782298,8.74043936 L1.35107143,8.74043936 C0.753959627,8.74043936 0.270326087,8.2543117 0.270326087,7.65533298 L0.270326087,6.76500319 C0.270326087,6.16548191 0.753959627,5.67989681 1.35107143,5.67989681 L2.23782298,5.67989681 C2.83493478,5.67989681 3.31856832,6.16548191 3.31856832,6.76500319 L3.31856832,7.65533298 C3.31856832,8.2543117 2.83493478,8.74043936 2.23782298,8.74043936" id="Fill-18" fill="#0ECC8D"></path>
                <path d="M7.6385236,8.74043936 L6.75177205,8.74043936 C6.15466025,8.74043936 5.67102671,8.2543117 5.67102671,7.65533298 L5.67102671,6.76500319 C5.67102671,6.16548191 6.15466025,5.67989681 6.75177205,5.67989681 L7.6385236,5.67989681 C8.23509503,5.67989681 8.71926894,6.16548191 8.71926894,6.76500319 L8.71926894,7.65533298 C8.71926894,8.2543117 8.23509503,8.74043936 7.6385236,8.74043936" id="Fill-20" fill="#0ECC8D"></path>
                <path d="M13.0390621,8.74043936 L12.1523106,8.74043936 C11.5551988,8.74043936 11.0715652,8.2543117 11.0715652,7.65533298 L11.0715652,6.76500319 C11.0715652,6.16548191 11.5551988,5.67989681 12.1523106,5.67989681 L13.0390621,5.67989681 C13.6356335,5.67989681 14.1198075,6.16548191 14.1198075,6.76500319 L14.1198075,7.65533298 C14.1198075,8.2543117 13.6356335,8.74043936 13.0390621,8.74043936" id="Fill-22" fill="#0ECC8D"></path>
                <path d="M2.23782298,13.7279138 L1.35107143,13.7279138 C0.753959627,13.7279138 0.270326087,13.2423287 0.270326087,12.6428074 L0.270326087,11.7524777 C0.270326087,11.1529564 0.753959627,10.6673713 1.35107143,10.6673713 L2.23782298,10.6673713 C2.83493478,10.6673713 3.31856832,11.1529564 3.31856832,11.7524777 L3.31856832,12.6428074 C3.31856832,13.2423287 2.83493478,13.7279138 2.23782298,13.7279138" id="Fill-24" fill="#0ECC8D"></path>
                <path d="M7.6385236,13.7279138 L6.75177205,13.7279138 C6.15466025,13.7279138 5.67102671,13.2423287 5.67102671,12.6428074 L5.67102671,11.7524777 C5.67102671,11.1529564 6.15466025,10.6673713 6.75177205,10.6673713 L7.6385236,10.6673713 C8.23509503,10.6673713 8.71926894,11.1529564 8.71926894,11.7524777 L8.71926894,12.6428074 C8.71926894,13.2423287 8.23509503,13.7279138 7.6385236,13.7279138" id="Fill-26" fill="#0ECC8D"></path>
                <path d="M13.0390621,13.7279138 L12.1523106,13.7279138 C11.5551988,13.7279138 11.0715652,13.2423287 11.0715652,12.6428074 L11.0715652,11.7524777 C11.0715652,11.1529564 11.5551988,10.6673713 12.1523106,10.6673713 L13.0390621,10.6673713 C13.6356335,10.6673713 14.1198075,11.1529564 14.1198075,11.7524777 L14.1198075,12.6428074 C14.1198075,13.2423287 13.6356335,13.7279138 13.0390621,13.7279138" id="Fill-28" fill="#0ECC8D"></path>
            </g>
        </g>
    </g>
</svg>