<svg xmlns="http://www.w3.org/2000/svg" viewBox="0 0 118 35">
  <path fill="#FFF" d="M13.82 17.35c0-2.29-1.38-3.83-3.55-3.83s-3.63 1.54-3.63 3.83v9.3H.17V.4h6.47v9.15c1.12-1.09 2.84-2.02 5.57-2.02 5.84 0 8.08 4.27 8.08 9.3v9.82h-6.47v-9.3zm20.43 3.38a2.65 2.65 0 0 0 2.64-2.65V8.26h6.54v9.82a9.17 9.17 0 0 1-9.18 9.14h-1.6c-.4 0-.8-.03-1.2-.08-4.51-.58-7.91-4.62-7.91-9.39V8.26H30v9.67a2.75 2.75 0 0 0 2.65 2.8h1.59zm22.56.47c-1.98 0-3.54-1.64-3.54-3.74 0-2.09 1.6-3.78 3.54-3.78 1.96 0 3.55 1.7 3.55 3.78 0 2.1-1.56 3.75-3.55 3.75m7.07-10.83a9.88 9.88 0 0 0-10.58-2.3V.01h-6.47V17.5a9.95 9.95 0 0 0 9.98 9.95 9.94 9.94 0 0 0 9.98-9.95c0-2.7-1.03-5.22-2.9-7.12M107.6 21c-1.98 0-3.54-1.64-3.54-3.74 0-2.08 1.6-3.78 3.54-3.78 1.96 0 3.54 1.7 3.54 3.78 0 2.1-1.55 3.75-3.54 3.75m.2-13.5a9.91 9.91 0 0 0-10.15 9.96c0 4.83 3.34 8.78 8.23 8.78 1.35 0 3.01-.3 4.21-1.42l-1.16 1.38c-2.54 3-3.7 4.26-6.35 7.06-.25.27-.4.57-.4.88 0 .38.22.77.73.77h5.11c.84 0 1.27-.43 1.85-1.04 3.3-3.49 7.98-8.47 7.98-15.33 0-6.48-4.13-11.05-10.04-11.05"/>
  <path fill="#0ECC8D" d="M73.46 12.75h2.68c.5 0 .9-.4.9-.9v-2.7a.9.9 0 0 0-.9-.89h-2.68c-.5 0-.9.4-.9.9v2.7c0 .49.4.89.9.89m7.21 0h2.69c.5 0 .9-.4.9-.9v-2.7a.9.9 0 0 0-.9-.89h-2.69c-.5 0-.9.4-.9.9v2.7c0 .49.4.89.9.89M87 9.16v2.7c0 .49.4.89.89.89h2.69c.5 0 .9-.4.9-.9v-2.7a.9.9 0 0 0-.9-.89h-2.69c-.5 0-.9.4-.9.9M73.46 19.98h2.68c.5 0 .9-.4.9-.9V16.4c0-.5-.4-.9-.9-.9h-2.68c-.5 0-.9.4-.9.9v2.7c0 .5.4.9.9.9m7.21-.02h2.69c.5 0 .9-.4.9-.9V16.4c0-.5-.4-.9-.9-.9h-2.69c-.5 0-.9.4-.9.9v2.7c0 .5.4.9.9.9m7.22-.02h2.69c.5 0 .9-.4.9-.9V16.4c0-.5-.4-.9-.9-.9h-2.69c-.5 0-.9.4-.9.9v2.7c0 .5.4.9.9.9m-14.43 7.22h2.68c.5 0 .9-.4.9-.9v-2.7a.9.9 0 0 0-.9-.89h-2.68c-.5 0-.9.4-.9.9v2.69c0 .5.4.9.9.9m7.21 0h2.69c.5 0 .9-.4.9-.9v-2.7a.9.9 0 0 0-.9-.89h-2.69c-.5 0-.9.4-.9.9v2.69c0 .5.4.9.9.9m7.22 0h2.69c.5 0 .9-.4.9-.9v-2.7a.9.9 0 0 0-.9-.89h-2.69c-.5 0-.9.4-.9.9v2.69c0 .5.4.9.9.9"/>
</svg>

