<svg width="13" height="19" viewBox="0 0 13 19" xmlns="http://www.w3.org/2000/svg"><g fill="#18E5A5" fill-rule="evenodd"><path d="M3.243 4.439H1.958A1.57 1.57 0 0 1 .392 2.866v-1.29c0-.869.7-1.573 1.566-1.573h1.285A1.57 1.57 0 0 1 4.81 1.576v1.29c0 .868-.701 1.573-1.567 1.573M3.243 11.668H1.958a1.57 1.57 0 0 1-1.566-1.573v-1.29c0-.87.7-1.573 1.566-1.573h1.285A1.57 1.57 0 0 1 4.81 8.805v1.29c0 .868-.701 1.573-1.567 1.573M11.07 11.668H9.787a1.57 1.57 0 0 1-1.567-1.573v-1.29c0-.87.701-1.573 1.567-1.573h1.285a1.57 1.57 0 0 1 1.566 1.573v1.29a1.57 1.57 0 0 1-1.566 1.573M3.243 18.896H1.958a1.57 1.57 0 0 1-1.566-1.572v-1.29c0-.87.7-1.573 1.566-1.573h1.285a1.57 1.57 0 0 1 1.567 1.572v1.29c0 .87-.701 1.573-1.567 1.573M11.07 18.896H9.787a1.57 1.57 0 0 1-1.567-1.572v-1.29c0-.87.701-1.573 1.567-1.573h1.285a1.57 1.57 0 0 1 1.566 1.572v1.29a1.57 1.57 0 0 1-1.566 1.573"/></g></svg>