<svg xmlns="http://www.w3.org/2000/svg" width="13" height="19"><path fill="#18E5A5" fill-rule="evenodd" d="M3.243 4.439H1.958A1.57 1.57 0 0 1 .392 2.866v-1.29c0-.869.7-1.573 1.566-1.573h1.285A1.57 1.57 0 0 1 4.81 1.576v1.29a1.57 1.57 0 0 1-1.567 1.573m0 7.229H1.958a1.57 1.57 0 0 1-1.566-1.573v-1.29c0-.87.7-1.573 1.566-1.573h1.285A1.57 1.57 0 0 1 4.81 8.805v1.29a1.57 1.57 0 0 1-1.567 1.573m7.827 0H9.787a1.57 1.57 0 0 1-1.567-1.573v-1.29c0-.87.701-1.573 1.567-1.573h1.285a1.57 1.57 0 0 1 1.566 1.573v1.29a1.57 1.57 0 0 1-1.566 1.573m-7.829 7.228H1.958a1.57 1.57 0 0 1-1.566-1.572v-1.29c0-.87.7-1.573 1.566-1.573h1.285a1.57 1.57 0 0 1 1.567 1.572v1.29c0 .87-.701 1.573-1.567 1.573m7.827 0H9.787a1.57 1.57 0 0 1-1.567-1.572v-1.29c0-.87.701-1.573 1.567-1.573h1.285a1.57 1.57 0 0 1 1.566 1.572v1.29a1.57 1.57 0 0 1-1.566 1.573"/></svg>