<svg xmlns="http://www.w3.org/2000/svg" viewBox="0 0 13.94 17.9"><defs><style>.cls-1{fill:#fff;}</style></defs><title>9</title><g id="Layer_2" data-name="Layer 2"><g id="_Group_" data-name="&lt;Group&gt;"><path class="cls-1" d="M7.78,12.22l.8-.9a4.42,4.42,0,0,1-2.9.93A5.57,5.57,0,0,1,0,6.51C0,2.9,3,0,7,0s6.93,3,6.93,7.21c0,4.48-3.23,7.73-5.51,10a1.68,1.68,0,0,1-1.28.68H3.63a.47.47,0,0,1-.5-.5.83.83,0,0,1,.28-.58C5.23,15,6,14.17,7.78,12.22ZM6.86,8.84a2.53,2.53,0,1,0-2.5-2.53A2.5,2.5,0,0,0,6.86,8.84Z"/></g></g></svg>