<svg xmlns="http://www.w3.org/2000/svg" viewBox="0 0 43.46 17.9">
<g><g><path fill="#FFFFFF" d="M9.14,11.31A2.32,2.32,0,0,0,6.76,8.76a2.36,2.36,0,0,0-2.43,2.55V17a.58.58,0,0,1-.6.53H.58A.57.57,0,0,1,0,16.95V.58A.57.57,0,0,1,.58,0H3.73a.58.58,0,0,1,.6.53V6.11A5.1,5.1,0,0,1,8.06,4.76c3.91,0,5.41,2.85,5.41,6.21v6a.58.58,0,0,1-.6.53H9.74a.58.58,0,0,1-.6-.53Z"/><path fill="#FFFFFF" d="M34.08,6a4.4,4.4,0,0,1,3.3-1.23c3.23,0,6.08,2.45,6.08,6.53s-2.85,6.61-6.11,6.61a4.4,4.4,0,0,1-3.28-1.15v.2a.57.57,0,0,1-.58.58H30.37a.57.57,0,0,1-.58-.58V.58A.57.57,0,0,1,30.37,0H33.5a.58.58,0,0,1,.58.58Zm2.53,7.91a2.55,2.55,0,1,0-2.5-2.55A2.52,2.52,0,0,0,36.61,13.89Z"/><path fill="#FFFFFF" d="M27.69,5.36l-.06-.07h0a.57.57,0,0,0-.38-.14H24.09a.58.58,0,0,0-.6.53v6a3.5,3.5,0,0,1-.25,1.4,2.06,2.06,0,0,1-.13.25h0a1.64,1.64,0,0,1-2.93,0h0A2.06,2.06,0,0,1,20,13a3.5,3.5,0,0,1-.25-1.4v-6a.58.58,0,0,0-.6-.53H16a.57.57,0,0,0-.38.14h0l-.06.07a.46.46,0,0,0-.13.3v6.66c0,3.31,1.91,5.53,5.29,5.58h1.67c3.45,0,5.41-2.23,5.41-5.58V5.66A.46.46,0,0,0,27.69,5.36Z"/></g></g></svg>
