<svg xmlns="http://www.w3.org/2000/svg" viewBox="0 0 390.7 111.57"><defs><style>.cls-1{fill:#6b37d1;}</style></defs><title>Loga-big</title><g id="Layer_2" data-name="Layer 2"><g id="_Group_" data-name="&lt;Group&gt;"><path class="cls-1" d="M44.56,55.19c0-7.45-4.52-12.45-11.6-12.45s-11.84,5-11.84,12.45V82.9a2.83,2.83,0,0,1-2.93,2.56H2.81A2.76,2.76,0,0,1,0,82.66V2.81A2.76,2.76,0,0,1,2.81,0H18.19a2.83,2.83,0,0,1,2.93,2.56V29.79c3.66-3.54,9.28-6.59,18.19-6.59,19,0,26.37,13.92,26.37,30.28V82.9a2.83,2.83,0,0,1-2.93,2.56H47.5a2.83,2.83,0,0,1-2.93-2.56Z"/><path class="cls-1" d="M166.21,29.18c3.17-3.66,9.16-6,16.12-6,15.75,0,29.67,12,29.67,31.87S198.08,87.3,182.21,87.3c-5.49,0-12.7-1.46-16-5.62v1a2.76,2.76,0,0,1-2.81,2.81H148.14a2.76,2.76,0,0,1-2.81-2.81V2.81A2.76,2.76,0,0,1,148.14,0h15.26a2.84,2.84,0,0,1,2.81,2.81Zm12.33,38.58a12.46,12.46,0,1,0-12.21-12.45A12.3,12.3,0,0,0,178.54,67.76Z"/><path class="cls-1" d="M360.67,83.85l3.91-4.4c-4,3.54-9.65,4.52-14.16,4.52C333.93,84,322.7,71.4,322.7,56c0-17.58,14.53-31.74,34.19-31.74,19.9,0,33.82,14.53,33.82,35.16,0,21.85-15.75,37.73-26.86,48.84-2,2-3.42,3.3-6.23,3.3H340.4a2.3,2.3,0,0,1-2.44-2.44,4.06,4.06,0,0,1,1.34-2.81C348.21,97.41,352.12,93.38,360.67,83.85Zm-4.52-16.48A12.33,12.33,0,1,0,343.94,55,12.19,12.19,0,0,0,356.15,67.37Z"/><path class="cls-1" d="M135.06,26.14a2.57,2.57,0,0,0-.3-.36l-.06,0a2.78,2.78,0,0,0-1.84-.7H117.48a2.83,2.83,0,0,0-2.93,2.56V56.78a17.09,17.09,0,0,1-1.23,6.81,10,10,0,0,1-.66,1.23h0c-1.95,2.83-3.19,4.29-7.14,4.38-4-.09-5.19-1.54-7.14-4.38h0a10,10,0,0,1-.66-1.23,17.09,17.09,0,0,1-1.23-6.81V27.59A2.83,2.83,0,0,0,93.54,25H78.16a2.78,2.78,0,0,0-1.84.7l-.06,0a2.57,2.57,0,0,0-.3.36,2.25,2.25,0,0,0-.61,1.46V60.07c0,16.17,9.32,27,25.8,27.2v0h8.14c16.85,0,26.37-10.87,26.37-27.23V27.59A2.25,2.25,0,0,0,135.06,26.14Z"/><rect class="cls-1" x="234.77" y="24.27" width="13.76" height="13.76" rx="6.88" ry="6.88"/><rect class="cls-1" x="259.15" y="24.27" width="13.76" height="13.76" rx="6.88" ry="6.88"/><rect class="cls-1" x="283.52" y="24.27" width="13.76" height="13.76" rx="6.88" ry="6.88"/><rect class="cls-1" x="234.77" y="46.69" width="13.76" height="13.76" rx="6.88" ry="6.88"/><rect class="cls-1" x="259.15" y="46.69" width="13.76" height="13.76" rx="6.88" ry="6.88"/><rect class="cls-1" x="283.52" y="46.69" width="13.76" height="13.76" rx="6.88" ry="6.88"/><rect class="cls-1" x="234.77" y="69.11" width="13.76" height="13.76" rx="6.88" ry="6.88"/><rect class="cls-1" x="259.15" y="69.11" width="13.76" height="13.76" rx="6.88" ry="6.88"/><rect class="cls-1" x="283.52" y="69.11" width="13.76" height="13.76" rx="6.88" ry="6.88"/></g></g></svg>