<?xml version="1.0" encoding="UTF-8"?>
<svg width="118px" height="35px" viewBox="0 0 118 35" version="1.1" xmlns="http://www.w3.org/2000/svg" xmlns:xlink="http://www.w3.org/1999/xlink">
    <!-- Generator: Sketch 44.1 (41455) - http://www.bohemiancoding.com/sketch -->
    <title>logohub9</title>
    <desc>Created with Sketch.</desc>
    <defs></defs>
    <g id="Page-1" stroke="none" stroke-width="1" fill="none" fill-rule="evenodd">
        <g id="1920-home" transform="translate(-120.000000, -90.000000)">
            <g id="logo" transform="translate(120.000000, 90.000000)">
                <path d="M13.8222143,17.347592 C13.8222143,15.0616545 12.437808,13.5243281 10.2678378,13.5243281 C8.09920129,13.5243281 6.64010639,15.0616545 6.64010639,17.347592 L6.64010639,26.6450747 L0.17020753,26.6450747 L0.17020753,0.402244792 L6.64010639,0.402244792 L6.64010639,9.55000521 C7.76310265,8.46318229 9.48227388,7.5260816 12.2137422,7.5260816 C18.0487881,7.5260816 20.2934469,11.799849 20.2934469,16.8222274 L20.2934469,26.6450747 L13.8222143,26.6450747 L13.8222143,17.347592 Z" id="Fill-29" fill="#FFFFFF"></path>
                <path d="M34.2462086,20.7274375 C35.7079709,20.7274375 36.8923185,19.5403542 36.8923185,18.0752153 L36.8923185,8.2630625 L43.4262362,8.2630625 L43.4262362,18.0752153 C43.4262362,23.1149722 39.3076941,27.2162917 34.2462086,27.2162917 L32.6564086,27.2162917 C32.2549575,27.2162917 31.8508389,27.1908924 31.4547226,27.1387569 C26.9387305,26.5585833 23.5350649,22.5214306 23.5350649,17.7517083 L23.5350649,8.2630625 L30.008965,8.2630625 L30.008965,17.9335139 C30.008965,19.2983924 30.9545758,20.4841389 32.2109446,20.6900069 C32.358988,20.7154062 32.5083652,20.7274375 32.6564086,20.7274375 L34.2462086,20.7274375 Z" id="Fill-31" fill="#FFFFFF"></path>
                <path d="M73.4555829,12.7487135 L76.1430383,12.7487135 C76.6365164,12.7487135 77.0379676,12.3476719 77.0379676,11.851717 L77.0379676,9.15939063 C77.0379676,8.66343576 76.6365164,8.2623941 76.1430383,8.2623941 L73.4555829,8.2623941 C72.9621047,8.2623941 72.5606535,8.66343576 72.5606535,9.15939063 L72.5606535,11.851717 C72.5606535,12.3476719 72.9621047,12.7487135 73.4555829,12.7487135" id="Fill-33" fill="#0ECC8D"></path>
                <path d="M80.672501,12.7487135 L83.3599564,12.7487135 C83.8534345,12.7487135 84.2548857,12.3476719 84.2548857,11.851717 L84.2548857,9.15939063 C84.2548857,8.66343576 83.8534345,8.2623941 83.3599564,8.2623941 L80.672501,8.2623941 C80.1790228,8.2623941 79.7775716,8.66343576 79.7775716,9.15939063 L79.7775716,11.851717 C79.7775716,12.3476719 80.1790228,12.7487135 80.672501,12.7487135" id="Fill-35" fill="#0ECC8D"></path>
                <path d="M86.9960902,9.15898958 L86.9960902,11.8526528 C86.9960902,12.3472708 87.3962076,12.7483125 87.8896858,12.7483125 L90.5771412,12.7483125 C91.0719531,12.7483125 91.4707368,12.3472708 91.4707368,11.8526528 L91.4707368,9.15898958 C91.4707368,8.66437153 91.0719531,8.26199306 90.5771412,8.26199306 L87.8896858,8.26199306 C87.3962076,8.26199306 86.9960902,8.66437153 86.9960902,9.15898958" id="Fill-37" fill="#0ECC8D"></path>
                <path d="M73.4555829,19.9827031 L76.1430383,19.9827031 C76.6365164,19.9827031 77.0379676,19.5816615 77.0379676,19.0857066 L77.0379676,16.3933802 C77.0379676,15.8974253 76.6365164,15.4963837 76.1430383,15.4963837 L73.4555829,15.4963837 C72.9621047,15.4963837 72.5606535,15.8974253 72.5606535,16.3933802 L72.5606535,19.0857066 C72.5606535,19.5816615 72.9621047,19.9827031 73.4555829,19.9827031" id="Fill-39" fill="#0ECC8D"></path>
                <path d="M80.672501,19.9827031 L83.3599564,19.9827031 C83.8534345,19.9827031 84.2548857,19.5816615 84.2548857,19.0857066 L84.2548857,16.3933802 C84.2548857,15.8974253 83.8534345,15.4963837 83.3599564,15.4963837 L80.672501,15.4963837 C80.1790228,15.4963837 79.7775716,15.8974253 79.7775716,16.3933802 L79.7775716,19.0857066 C79.7775716,19.5816615 80.1790228,19.9827031 80.672501,19.9827031" id="Fill-41" fill="#0ECC8D"></path>
                <path d="M87.8895524,19.9827031 L90.5770079,19.9827031 C91.0718197,19.9827031 91.4719372,19.5816615 91.4719372,19.0857066 L91.4719372,16.3933802 C91.4719372,15.8974253 91.0718197,15.4963837 90.5770079,15.4963837 L87.8895524,15.4963837 C87.3960743,15.4963837 86.9959568,15.8974253 86.9959568,16.3933802 L86.9959568,19.0857066 C86.9959568,19.5816615 87.3960743,19.9827031 87.8895524,19.9827031" id="Fill-43" fill="#0ECC8D"></path>
                <path d="M73.4555829,27.2166927 L76.1430383,27.2166927 C76.6365164,27.2166927 77.0379676,26.815651 77.0379676,26.3196962 L77.0379676,23.6273698 C77.0379676,23.1314149 76.6365164,22.7303733 76.1430383,22.7303733 L73.4555829,22.7303733 C72.9621047,22.7303733 72.5606535,23.1314149 72.5606535,23.6273698 L72.5606535,26.3196962 C72.5606535,26.815651 72.9621047,27.2166927 73.4555829,27.2166927" id="Fill-45" fill="#0ECC8D"></path>
                <path d="M80.672501,27.2166927 L83.3599564,27.2166927 C83.8534345,27.2166927 84.2548857,26.815651 84.2548857,26.3196962 L84.2548857,23.6273698 C84.2548857,23.1314149 83.8534345,22.7303733 83.3599564,22.7303733 L80.672501,22.7303733 C80.1790228,22.7303733 79.7775716,23.1314149 79.7775716,23.6273698 L79.7775716,26.3196962 C79.7775716,26.815651 80.1790228,27.2166927 80.672501,27.2166927" id="Fill-47" fill="#0ECC8D"></path>
                <path d="M87.8895524,27.2166927 L90.5770079,27.2166927 C91.0718197,27.2166927 91.4719372,26.815651 91.4719372,26.3196962 L91.4719372,23.6273698 C91.4719372,23.1314149 91.0718197,22.7303733 90.5770079,22.7303733 L87.8895524,22.7303733 C87.3960743,22.7303733 86.9959568,23.1314149 86.9959568,23.6273698 L86.9959568,26.3196962 C86.9959568,26.815651 87.3960743,27.2166927 87.8895524,27.2166927" id="Fill-49" fill="#0ECC8D"></path>
                <path d="M56.814032,21.207217 C54.8281158,21.207217 53.2729928,19.5616094 53.2729928,17.460151 C53.2729928,15.3747344 54.861459,13.6769913 56.814032,13.6769913 C58.7666051,13.6769913 60.3550713,15.3747344 60.3550713,17.460151 C60.3550713,19.5616094 58.7999482,21.207217 56.814032,21.207217 M63.8814396,10.3817656 C61.9995539,8.48216493 59.4908176,7.43678299 56.814032,7.43678299 C55.5936739,7.43678299 54.41066,7.66537674 53.3036684,8.08246007 L53.3036684,0.00949131944 L46.8337696,0.00949131944 L46.8337696,17.4989184 C46.8337696,20.1711927 47.8674063,22.6736927 49.7466245,24.5452205 C51.6258427,26.4154115 54.1359127,27.4460885 56.814032,27.4460885 C59.4934851,27.4460885 62.0022214,26.4154115 63.8801059,24.5452205 C65.7593241,22.6736927 66.7942945,20.1711927 66.7942945,17.4989184 C66.7942945,14.8052552 65.7606578,12.2786927 63.8814396,10.3817656" id="Fill-51" fill="#FFFFFF"></path>
                <path d="M107.604939,21.0081667 C105.619023,21.0081667 104.062566,19.362559 104.062566,17.2611007 C104.062566,15.175684 105.651032,13.477941 107.604939,13.477941 C109.557512,13.477941 111.144644,15.175684 111.144644,17.2611007 C111.144644,19.362559 109.589521,21.0081667 107.604939,21.0081667 M107.806331,7.50375694 C101.96595,7.50375694 97.6500171,11.951309 97.6500171,17.4709792 C97.6500171,22.3035313 100.986996,26.2511181 105.884434,26.2511181 C107.226161,26.2511181 108.894651,25.9449896 110.091002,24.8327674 L108.930661,26.2136875 C106.392583,29.2027847 105.232242,30.4687396 102.583465,33.2680104 C102.330057,33.5353715 102.184681,33.8428368 102.184681,34.1489653 C102.184681,34.5326285 102.402078,34.9162917 102.908894,34.9162917 L108.023728,34.9162917 C108.857306,34.9162917 109.294768,34.4938611 109.873605,33.8802674 C113.175907,30.3925417 117.854614,25.4075938 117.854614,18.5457708 C117.854614,12.0662743 113.718733,7.50375694 107.806331,7.50375694" id="Fill-53" fill="#FFFFFF"></path>
            </g>
        </g>
    </g>
</svg>