<svg xmlns="http://www.w3.org/2000/svg" viewBox="0 0 362 690">
  <path fill="none" stroke="#c2ced1" d="M8.75 196.15A7.65 7.65 0 0 1 1 188.4v-35.6a7.65 7.65 0 0 1 7.75-7.74m0 112.58A7.65 7.65 0 0 1 1 249.9v-35.35a7.65 7.65 0 0 1 7.75-7.75m54.71 481.82A55.08 55.08 0 0 1 8.5 633.64V55.96A55.08 55.08 0 0 1 63.46 1H306.3a55.08 55.08 0 0 1 54.97 54.96V633.9a55.08 55.08 0 0 1-54.97 54.96H63.46v-.24zm243.1-6.07H63.46a48.93 48.93 0 0 1-48.9-48.9V55.95a49.08 49.08 0 0 1 48.9-48.9h242.85c27 .01 48.9 21.9 48.91 48.9v577.94a48.67 48.67 0 0 1-48.67 48.67l.01-.01zM206.08 48.46h-46.49a3.72 3.72 0 0 1-3.63-3.63 3.72 3.72 0 0 1 3.63-3.63h46.49a3.72 3.72 0 0 1 3.63 3.63 3.57 3.57 0 0 1-3.63 3.63zm-26.15-29.78a3.15 3.15 0 1 0 6.3 0 3.15 3.15 0 1 0-6.3 0zM138.52 44.1a2.66 2.66 0 1 0 5.32 0 2.66 2.66 0 1 0-5.32 0zm-4.36 0a7.02 7.02 0 1 0 14.04 0 7.02 7.02 0 1 0-14.04 0zm25.14 599.5a24.5 24.5 0 1 0 49 0 24.5 24.5 0 1 0-49 0zm24.5 30.49a30.63 30.63 0 1 1 30.51-30.75 30.53 30.53 0 0 1-30.5 30.75h-.01z"/>
</svg>
